<svg width="51" height="51" fill="none" xmlns="http://www.w3.org/2000/svg"><path clip-rule="evenodd" d="M40.166 37.903V21.237L28.26 9.332H16.356a4.762 4.762 0 0 0-4.762 4.762v23.81a4.762 4.762 0 0 0 4.762 4.761h19.048a4.762 4.762 0 0 0 4.762-4.762v0Z" stroke="#1251B0" stroke-width="2.4" stroke-linecap="round" stroke-linejoin="round"/><path d="M28.26 9.332v7.143a4.762 4.762 0 0 0 4.763 4.761h7.143" stroke="#1251B0" stroke-width="2.4" stroke-linecap="round" stroke-linejoin="round"/><path d="M30.052 30.216c-.061 1.417-.412 2.543-1.054 3.379-.637.83-1.495 1.245-2.574 1.245-.476 0-.888-.103-1.236-.307a1.952 1.952 0 0 1-.78-.88c-.554.775-1.276 1.162-2.167 1.162-.808 0-1.433-.34-1.876-1.021-.443-.68-.609-1.58-.498-2.698.1-.913.329-1.724.689-2.432.365-.714.824-1.262 1.378-1.644a3.096 3.096 0 0 1 1.793-.572c.79 0 1.466.182 2.025.548l.523.357-.423 4.797c-.056.438-.009.772.14 1.005.156.232.4.348.731.348.51 0 .935-.296 1.279-.888.343-.597.53-1.378.564-2.34.094-1.932-.296-3.415-1.17-4.45-.87-1.04-2.159-1.56-3.869-1.56-1.068 0-2.02.27-2.855.813-.836.542-1.494 1.314-1.976 2.316-.481.996-.752 2.139-.813 3.428-.089 1.96.304 3.473 1.178 4.54.875 1.074 2.184 1.611 3.927 1.611.46 0 .94-.052 1.444-.158.504-.1.938-.235 1.303-.406l.316 1.278c-.338.221-.794.398-1.37.531a7.298 7.298 0 0 1-1.726.208c-1.461 0-2.706-.296-3.736-.888-1.03-.587-1.798-1.456-2.307-2.607-.504-1.145-.723-2.515-.656-4.109.066-1.527.415-2.897 1.046-4.109.63-1.212 1.488-2.147 2.573-2.805 1.09-.664 2.319-.996 3.686-.996 1.389 0 2.584.298 3.585.896 1.002.592 1.752 1.442 2.25 2.548.498 1.107.717 2.394.656 3.86Zm-8.343.88c-.06.73.003 1.287.191 1.669.189.376.493.564.914.564.27 0 .528-.119.771-.357.244-.238.446-.58.606-1.03l.349-3.925a2.087 2.087 0 0 0-.664-.108c-.636 0-1.132.27-1.486.813-.349.543-.575 1.334-.68 2.374Z" fill="#1251B0"/></svg>