<svg width="33" height="32" viewBox="0 0 33 32" fill="none" xmlns="http://www.w3.org/2000/svg">
<g clip-path="url(#clip0_653_10544)">
<path fill-rule="evenodd" clip-rule="evenodd" d="M22.8245 6.53867C21.8677 6.64735 20.9446 6.95628 20.1151 7.44533V7.2C20.4693 7.06945 20.7682 6.82162 20.962 6.49771C21.1559 6.1738 21.233 5.7933 21.1807 5.41946C21.1283 5.04562 20.9497 4.70095 20.6743 4.44272C20.399 4.18449 20.0435 4.02827 19.6671 4C19.3319 4.0013 19.0048 4.10383 18.7288 4.29416C18.4529 4.4845 18.2408 4.75376 18.1205 5.06667C18.0392 4.85154 17.9136 4.65587 17.7519 4.49234C17.5902 4.32881 17.396 4.20105 17.1818 4.11733C16.7728 3.96384 16.3198 3.97737 15.9206 4.15499C15.5215 4.3326 15.2082 4.66006 15.0484 5.06667C14.9453 4.79891 14.7747 4.56238 14.5531 4.38003C14.3316 4.19769 14.0667 4.07573 13.7841 4.02599C13.5015 3.97626 13.2108 4.00045 12.9404 4.0962C12.6699 4.19196 12.4288 4.35603 12.2404 4.57248C12.052 4.78893 11.9229 5.05041 11.8654 5.33153C11.8079 5.61265 11.8241 5.90385 11.9124 6.17686C12.0007 6.44987 12.1581 6.69541 12.3693 6.88964C12.5805 7.08386 12.8383 7.22017 13.1178 7.28533V7.56267C12.2736 7.03782 11.3221 6.70972 10.3338 6.60267H9.96045V9.93067H10.2698C10.6657 9.93694 11.0454 10.0888 11.3364 10.3573C11.4698 10.4693 11.5784 10.6076 11.6555 10.7637C11.7326 10.9198 11.7765 11.0901 11.7844 11.264V12.9173C11.869 13.5099 12.1489 14.0572 12.5798 14.4726C13.0107 14.8881 13.5679 15.1478 14.1631 15.2107H18.8884C19.4818 15.1456 20.0365 14.8848 20.4653 14.4696C20.894 14.0544 21.1724 13.5082 21.2564 12.9173V11.264C21.2644 11.0901 21.3083 10.9198 21.3854 10.7637C21.4625 10.6076 21.5711 10.4693 21.7044 10.3573C21.9981 10.093 22.3762 9.94175 22.7711 9.93067H23.1018V6.496L22.8245 6.53867ZM19.6244 4.27733C19.8886 4.27522 20.1474 4.35162 20.3681 4.49684C20.5888 4.64205 20.7613 4.84955 20.8639 5.09299C20.9664 5.33643 20.9944 5.60485 20.9441 5.86419C20.8939 6.12353 20.7677 6.3621 20.5817 6.54964C20.3957 6.73718 20.1581 6.86523 19.8992 6.91755C19.6403 6.96986 19.3716 6.94409 19.1274 6.84349C18.8831 6.7429 18.6742 6.57201 18.5273 6.35252C18.3803 6.13303 18.3018 5.87483 18.3018 5.61067C18.3017 5.43284 18.3373 5.25681 18.4062 5.09292C18.4752 4.92903 18.5763 4.7806 18.7036 4.65636C18.8308 4.53212 18.9816 4.43459 19.147 4.36949C19.3125 4.3044 19.4893 4.27307 19.6671 4.27733H19.6244ZM16.5524 4.27733C16.8162 4.27733 17.0739 4.35553 17.2932 4.50204C17.5125 4.64855 17.6834 4.85679 17.7843 5.10042C17.8852 5.34406 17.9116 5.61215 17.8602 5.87079C17.8087 6.12943 17.6817 6.36701 17.4953 6.55348C17.3088 6.73995 17.0712 6.86693 16.8126 6.91838C16.5539 6.96983 16.2858 6.94342 16.0422 6.84251C15.7986 6.74159 15.5903 6.57069 15.4438 6.35143C15.2973 6.13216 15.2191 5.87437 15.2191 5.61067C15.2175 5.4315 15.2524 5.25387 15.3215 5.08857C15.3906 4.92326 15.4926 4.77373 15.6213 4.64904C15.75 4.52436 15.9027 4.42711 16.0701 4.36322C16.2374 4.29932 16.4161 4.2701 16.5951 4.27733H16.5524ZM12.1684 5.61067C12.1685 5.34561 12.2476 5.08659 12.3956 4.86669C12.5435 4.64678 12.7537 4.47597 12.9992 4.37606C13.2447 4.27616 13.5144 4.25169 13.7739 4.30578C14.0334 4.35987 14.2708 4.49008 14.456 4.67976C14.6411 4.86945 14.7655 5.11 14.8133 5.37072C14.8611 5.63143 14.83 5.90047 14.7242 6.14347C14.6184 6.38648 14.4425 6.59243 14.2191 6.73501C13.9956 6.8776 13.7348 6.95036 13.4698 6.944C13.1217 6.93564 12.7908 6.79149 12.5476 6.54234C12.3044 6.29319 12.1683 5.95881 12.1684 5.61067ZM15.1658 14.88H14.2164C13.7096 14.8162 13.2367 14.5908 12.8679 14.2373C12.499 13.8839 12.2538 13.421 12.1684 12.9173V11.264C12.1277 10.7953 11.9073 10.3605 11.5535 10.0504C11.1997 9.74035 10.7398 9.57897 10.2698 9.6V6.83733C11.2799 6.96386 12.2453 7.32954 13.0858 7.904V9.6C13.3585 9.5911 13.6302 9.63826 13.884 9.73857C14.1378 9.83888 14.3683 9.99019 14.5613 10.1832C14.7543 10.3761 14.9056 10.6066 15.0059 10.8604C15.1062 11.1142 15.1534 11.3859 15.1444 11.6587L15.1658 14.88ZM14.6858 6.83733C14.8567 6.67351 14.988 6.47287 15.0698 6.25067C15.1528 6.46183 15.2779 6.65393 15.4374 6.81529C15.5969 6.97664 15.7876 7.1039 15.9978 7.18933C16.4039 7.34689 16.8558 7.3378 17.2553 7.16404C17.6548 6.99027 17.9695 6.66587 18.1311 6.26133C18.2273 6.48112 18.3649 6.68031 18.5364 6.848C17.826 7.05081 17.1723 7.41597 16.6271 7.91467C16.0767 7.40374 15.4105 7.03405 14.6858 6.83733ZM22.8671 9.64267C22.3991 9.61505 21.9382 9.76766 21.5792 10.0692C21.2201 10.3707 20.9902 10.7982 20.9365 11.264V12.9173C20.8533 13.4202 20.6101 13.8827 20.2431 14.2363C19.876 14.5899 19.4047 14.8157 18.8991 14.88H18.0564V11.68C18.0475 11.4072 18.0947 11.1356 18.195 10.8818C18.2953 10.628 18.4466 10.3975 18.6396 10.2045C18.8326 10.0115 19.0631 9.86021 19.3169 9.7599C19.5707 9.65959 19.8424 9.61243 20.1151 9.62133V7.82933C20.9458 7.29507 21.8866 6.95592 22.8671 6.83733V9.64267Z" fill="#1251B0" stroke="#1251B0" stroke-width="0.5"/>
<path d="M27.3364 19.4453H23.539C23.4899 19.4452 23.4426 19.464 23.4069 19.4977C23.3712 19.5315 23.3498 19.5776 23.347 19.6266V21.28C23.3498 21.329 23.3712 21.3752 23.4069 21.4089C23.4426 21.4426 23.4899 21.4614 23.539 21.4613H25.1177V28.4906C25.1204 28.5397 25.1419 28.5858 25.1776 28.6196C25.2133 28.6533 25.2606 28.6721 25.3097 28.672H27.3364C27.3855 28.6721 27.4328 28.6533 27.4685 28.6196C27.5042 28.5858 27.5257 28.5397 27.5284 28.4906V19.6373C27.5284 19.5864 27.5082 19.5376 27.4721 19.5015C27.4361 19.4655 27.3873 19.4453 27.3364 19.4453Z" fill="#1251B0"/>
<path d="M32.3178 19.4453H28.4991C28.45 19.4452 28.4027 19.464 28.367 19.4977C28.3313 19.5315 28.3099 19.5776 28.3071 19.6266V21.28C28.3099 21.329 28.3313 21.3752 28.367 21.4089C28.4027 21.4426 28.45 21.4614 28.4991 21.4613H30.0778V28.4906C30.0805 28.5397 30.102 28.5858 30.1377 28.6196C30.1734 28.6533 30.2207 28.6721 30.2698 28.672H32.3178C32.3669 28.6721 32.4142 28.6533 32.4499 28.6196C32.4856 28.5858 32.5071 28.5397 32.5098 28.4906V19.6373C32.5098 19.5864 32.4896 19.5376 32.4536 19.5015C32.4176 19.4655 32.3687 19.4453 32.3178 19.4453Z" fill="#1251B0"/>
<path d="M9.20304 24.9706L10.0777 23.6693C10.931 22.4 11.7844 21.1413 12.627 19.8613C12.707 19.7248 12.8205 19.6111 12.9568 19.5308C13.0931 19.4505 13.2476 19.4064 13.4057 19.4026C13.7002 19.3762 13.9965 19.3762 14.291 19.4026C14.6324 19.456 14.7497 19.5946 14.7497 19.9253V28.2773C14.7497 28.6293 14.6324 28.7573 14.2697 28.8106C13.8566 28.8801 13.4348 28.8801 13.0217 28.8106C12.6804 28.7573 12.563 28.6186 12.563 28.2773V23.3493C12.0297 24.16 11.4964 24.8853 11.0377 25.6213C10.4084 26.5493 9.77904 27.488 9.16037 28.4373C9.0778 28.5825 8.95838 28.7033 8.81417 28.7876C8.66996 28.8719 8.50607 28.9166 8.33904 28.9173C8.07304 28.9439 7.80504 28.9439 7.53904 28.9173C7.12304 28.864 7.01637 28.7573 7.01637 28.3306V21.088C7.01637 20.7146 7.01637 20.352 7.01637 20.0213C7.00899 19.9602 7.01398 19.8982 7.03106 19.8391C7.04813 19.7799 7.07693 19.7248 7.11575 19.6771C7.15457 19.6293 7.20261 19.5898 7.257 19.561C7.3114 19.5322 7.37104 19.5146 7.43237 19.5093C7.87727 19.4347 8.33148 19.4347 8.77638 19.5093C8.84024 19.5115 8.90292 19.5272 8.96018 19.5556C9.01745 19.584 9.06799 19.6243 9.1084 19.6738C9.14881 19.7233 9.17816 19.7808 9.19449 19.8426C9.21081 19.9044 9.21373 19.969 9.20304 20.032C9.20304 21.6 9.20304 23.168 9.20304 24.736V24.9706Z" fill="#1251B0"/>
<path d="M0.829758 24.2881V20.3415C0.829758 19.7015 1.07509 19.4668 1.72576 19.4668H5.66176C6.10976 19.4668 6.22709 19.5735 6.29109 20.0215C6.33368 20.2936 6.33368 20.5707 6.29109 20.8428C6.22709 21.2161 6.10976 21.3335 5.71509 21.3335C4.92576 21.3335 4.12576 21.3335 3.33643 21.3335C3.09109 21.3335 3.02709 21.3975 3.02709 21.6428C3.02709 23.8544 3.02709 26.0624 3.02709 28.2668C3.02709 28.7255 2.92043 28.8321 2.47243 28.8961C2.08709 28.9548 1.69509 28.9548 1.30976 28.8961C0.947092 28.8321 0.819092 28.6935 0.819092 28.3308L0.829758 24.2881Z" fill="#1251B0"/>
<path d="M24.2751 28.3094C24.0618 27.488 23.7311 26.688 23.4538 25.888C22.7711 23.904 22.0778 21.9307 21.3951 19.9574C21.3587 19.8109 21.2732 19.6813 21.1529 19.5901C21.0326 19.4989 20.8847 19.4516 20.7338 19.456H20.5631C20.0942 19.4294 19.6241 19.4294 19.1551 19.456C19.0019 19.4536 18.8523 19.5027 18.7304 19.5956C18.6085 19.6885 18.5214 19.8196 18.4831 19.968C17.8111 21.9414 17.1071 23.9147 16.4245 25.8987C16.1471 26.6987 15.8271 27.488 15.6138 28.32C15.5897 28.3827 15.5811 28.4503 15.5888 28.517C15.5965 28.5837 15.6202 28.6476 15.6579 28.7031C15.6957 28.7587 15.7463 28.8043 15.8055 28.836C15.8647 28.8677 15.9306 28.8847 15.9978 28.8854C16.4011 28.9434 16.8105 28.9434 17.2138 28.8854C17.3366 28.8792 17.4541 28.8332 17.5484 28.7543C17.6428 28.6754 17.7088 28.5679 17.7365 28.448C17.8858 27.9894 18.0458 27.5307 18.1845 27.0614C18.1883 27.0224 18.2001 26.9847 18.2191 26.9504C18.2381 26.9162 18.2638 26.8862 18.2947 26.8622C18.3257 26.8383 18.3612 26.8209 18.3991 26.8111C18.437 26.8013 18.4765 26.7994 18.5151 26.8054C19.4005 26.8054 20.2965 26.8054 21.1818 26.8054C21.2205 26.7994 21.26 26.8013 21.2979 26.8111C21.3357 26.8209 21.3712 26.8383 21.4022 26.8622C21.4331 26.8862 21.4589 26.9162 21.4778 26.9504C21.4968 26.9847 21.5086 27.0224 21.5125 27.0614C21.6618 27.5414 21.8431 28.0214 21.9925 28.5014C22.0162 28.6001 22.07 28.689 22.1464 28.7559C22.2228 28.8228 22.3181 28.8643 22.4191 28.8747C22.7981 28.9228 23.1815 28.9228 23.5605 28.8747H23.6885H23.8911C23.9583 28.874 24.0243 28.8571 24.0834 28.8253C24.1426 28.7936 24.1933 28.748 24.231 28.6925C24.2687 28.6369 24.2924 28.573 24.3001 28.5063C24.3078 28.4396 24.2992 28.372 24.2751 28.3094ZM18.8565 24.8427C19.1871 23.8934 19.4965 22.944 19.8378 21.9094L20.7125 24.5227C20.8405 24.9174 20.8725 25.024 20.6485 25.0454H19.0378C18.8778 25.056 18.8031 25.0454 18.8565 24.8427Z" fill="#1251B0"/>
</g>
<defs>
<clipPath id="clip0_653_10544">
<rect width="32" height="32" fill="white" transform="translate(0.819092)"/>
</clipPath>
</defs>
</svg>
